<svg xmlns="http://www.w3.org/2000/svg" width="780" height="651.656" viewBox="0 0 780 651.656">
  <defs>
    <style>
      .cls-1 {
        fill: #313238;
        fill-rule: evenodd;
      }
    </style>
  </defs>
  <path id="Vector_Color" data-name="Vector &amp; Color" class="cls-1" d="M803,194c42.792-.744,76.888,39.132,58,82-8.039,18.245-25.36,29.062-47,34-9.989,2.28-20.936-2.46-27-5-23.749-9.949-47.161-40.067-33-74,5.969-14.3,17.718-27,32-33ZM773,686V350h70V687h57v66c-58.578.047-123.361,0-185,0-22.368-40.759-49.515-79.717-74-119-6.969-11.181-13.293-22.375-20-33-2.036-3.225-6.3-14.551-9-16H459L359,753H275v-1c4.568-3.786,5.765-9.795,9-15,9.269-14.914,17.554-30.535,27-46,23.383-38.281,46.62-77.975,70-116,9.067-14.747,17.2-29.689,26-44,2.3-3.734,4.348-13,8-15H572v-1c-4.58-4.735-6.388-11.191-10-17-8.7-13.987-16.976-28.675-26-43-15.634-24.819-30.232-50.624-46-76-8.266-13.3-17.969-26.517-25-41h-2c-2.594,10.259-11.751,19.6-17,28-13.9,22.256-26.517,45.11-40,67-14.285,23.193-25.605,46.843-40,70-29.679,47.747-59.512,97.026-89,145-15.692,25.53-30.437,51-46,76-2.6,4.18-14.631,27.713-17,29H131v-2c4.944-4.187,6.473-11.326,10-17,7.3-11.743,14.446-23.847,22-36,25.556-41.116,49.174-83.357,75-125,38.682-62.372,76.525-126.393,115-189,10.2-16.6,17.8-33.357,28-50,15.367-25.066,31.607-50.924,47-76,3.706-6.037,5.26-11.986,9-18,8.762-14.091,19.273-27.823,27-43h2c3.276,12.943,14.412,25.307,21,36,17.035,27.649,32.148,55.976,49,83,14.886,23.871,27.144,48.094,42,72,38.644,62.184,76.362,125.932,115,188,17.344,27.862,32.876,56.444,50,84C751.63,673.886,749.8,686.368,773,686ZM138,786c8.035,1.366,11.83,3.534,17,7v1h-1c-1.47,2.271-2.1,3.009-5,4-1.312-3.69-3.295-4.678-8-5-3.135-2.042-6.692.123-10,1-1.708,2.725-2.536,2.5-3,7-4.01,9.777,17.089,11.988,23,16l5,6c0.238,6.5-.208,7.914-1,14a59.792,59.792,0,0,0-9,7,61.95,61.95,0,0,1-21-2l-5-6v-2c2.9-.836,2.574-1.391,6-2,2.668,8.006,12.632,6.935,20,5,14.769-23.792-24.558-10.733-25-39,3.757-4.469,6.881-7.044,11-11C134.72,787.007,136.6,786.961,138,786Zm673,0c39.12,1.521,39.493,50.825,5,59-21.936,5.2-39.523-21.076-31-41,2.842-6.643,10.025-13.442,17-16C804.871,786.947,808.693,787.391,811,786Zm-265,1c17.039-.543,27.028,2.859,33,13,10.764,18.278-2.73,39.408-16,44-23.058,7.979-45.584-14.523-38-37C529.437,793.849,536.337,794.106,546,787Zm-373,1c-0.153,15-.76,33.068,2,45l6,5c7.918,0.684,11.646-.271,18-2,4.195-7.1,8.134-35.784,4-48h7c0.177,11.155,2.521,35.554-1,44-2.4,5.747-7.833,8.037-12,12-18.648,1.209-26.321-2.48-31-18-1.82-6.037,1.25-37.423,0-38h7Zm50,0c10.952-.151,22.856.092,31,2,1.807,2.718,3.777,3.544,5,7,3.491,4.248,1.23,10.275,0,15-3.707,2.385-5.955,5.71-11,7-5.661,1.448-13.815-1.622-18,1-2.71,4.186-1.132,16.8-1,23h-6V788Zm47,0h36v5c-7.468,2.516-20.741,1.081-30,1v17c5.9,2,16.417,1.079,24,1v5c-9.464.023-13.727,0.042-23,0-1.657,4.866-1.077,13.523-1,20,7.468,2.516,20.741,1.081,30,1v6c-12.444.046-24.858-.788-36-1V788Zm47,0c11.234-.151,23.6.034,32,2l6,7a73.021,73.021,0,0,1,0,13c-1.87,1.352-12.174,8.544-13,10,5.626,5.371,13.729,15.968,16,24h-4c-1.18-.8-1.681-0.773-4-1-0.816-2.83-14.338-24.222-16-25H324c-2.085,6.159-1.079,17.139-1,25h-6V788Zm46,56c1.473-12.358,13.511-32.206,19-43,3.1-6.086,1.65-12.738,11-13q12.5,27.5,25,55h-7c-7.983-18.466-9.259-15.818-35-15C374.728,835.133,371.99,844,363,844Zm62-56h7c-0.386,15.217-1.242,33.5,2,46,4.547,2.855,12.837,7.574,19,3,4.508-1.435,5.132-4.163,8-7,0.846-12.485.992-27.982,1-42h7c-0.241,9.311,1.327,37.316-2,45-2.4,5.537-7.933,7.172-12,11-11.38.867-23.71,0.811-27-9C421.447,827.792,424.842,800.761,425,788Zm51,0h45v5h-1v1H502v50h-7V794H476v-6Zm118,0h10l19,46c0.8-1.021.355-.274,1-2,6.231-8.4,10.871-22.508,15-32q2-6,4-12h10v56l-7-1V799h-1v2c-6.632,7.612-13.831,41.619-23,43-1.021-.8-0.274-0.355-2-1-3.767-15.991-13.964-28.766-18-45h-1v46h-6C590.82,831.445,593.921,803.289,594,788Zm68,56c1.312-13.021,12.625-30.987,18-42,1.04-2.13,3.887-13.2,5-14h7c4.829,19.848,18.9,35.877,24,56h-4c-0.771-.682-2.232-1.311-3-2-1.441-1.922-5.049-13.311-6-14H675C672.439,834.243,670.943,843.92,662,844Zm49-56h45v6H737v50h-7V794H711v-6Zm54,0h7v55h-7V788Zm87,0h7c4.688,14.058,24.563,29.8,32,44h1V788h7v55h-7c-4.483-7.289-11.107-13.212-16-20-5.508-7.641-10.142-17.813-18-23v44h-6V788ZM229,813c7.116,0.1,15.384.129,21-1,6.115-8.967,4.836-11.035-2-18-3.524-.1-16.672-1.513-18,0C227.72,797.494,228.869,807.648,229,813Zm318-20c-1.95,1.55-4.807,1.5-7,3-3.594,2.451-5.011,7.874-8,11-0.764,8.9.229,14.748,2,22a76.619,76.619,0,0,1,11,9c17.858,1.881,25.552-2.43,30-17,1.244-4.077,1.417-10.773-1-14C571.2,796.144,561.359,792.6,547,793Zm259,0c-1.073.752-.946,0.6-3,1l-8,6c-2.119,2.862-2.615,6.5-5,9-0.471,21.085,3.828,19.53,14,29,20.49,1.812,20.1-3.187,30-14a64.482,64.482,0,0,0-2-21C823.5,797.237,821.84,792.859,806,793Zm-483,1v18c4.106,1.4,11.344,1.074,17,1,1.18-.8,1.681-0.773,4-1,2.484-3.742,4.53-4.736,5-11a19.54,19.54,0,0,1-2-4C341.413,793.774,332.541,793.865,323,794Zm66,3c-1.142,9.079-6.611,17.2-10,25h22v-2C396.692,814.252,395.445,800.325,389,797Zm289,25h22v-1c-5.166-5.869-7.624-16.727-11-24-0.8,1.021-.355.274-1,2C683.7,803.631,679.106,814.986,678,822Z" transform="translate(-120 -194)"/>
</svg>
